<?xml version="1.0" standalone="no"?>
<!DOCTYPE svg PUBLIC "-//W3C//DTD SVG 20010904//EN"
 "http://www.w3.org/TR/2001/REC-SVG-20010904/DTD/svg10.dtd">
<svg version="1.0" xmlns="http://www.w3.org/2000/svg"
 width="358.000000pt" height="368.000000pt" viewBox="0 0 358.000000 368.000000"
 preserveAspectRatio="xMidYMid meet">

<g transform="translate(0.000000,368.000000) scale(0.100000,-0.100000)"
fill="#D3D3D3" stroke="none">
<path d="M490 1830 l0 -1682 768 5 c506 3 794 8 847 16 189 27 458 112 585
183 183 104 340 240 463 403 76 101 192 326 232 450 66 207 102 505 91 751
-17 366 -98 639 -260 883 -242 363 -608 566 -1166 647 -96 14 -234 17 -837 21
l-723 5 0 -1682z m1401 1126 c258 -35 427 -108 576 -249 157 -150 251 -343
295 -607 18 -110 15 -404 -6 -525 -73 -434 -318 -739 -676 -841 -95 -28 -95
-28 -492 -31 l-398 -4 0 1135 0 1136 298 0 c198 0 332 -5 403 -14z"/>
<path d="M1354 2366 c-34 -28 -38 -84 -9 -116 18 -19 28 -20 406 -20 l388 0
20 26 c35 45 24 96 -26 122 -15 9 -128 12 -387 12 l-365 0 -27 -24z"/>
<path d="M1368 1995 c-32 -18 -52 -72 -39 -106 5 -13 19 -33 31 -44 21 -19 36
-20 495 -20 l473 0 26 24 c36 34 36 98 0 132 l-26 24 -466 2 c-394 2 -471 0
-494 -12z"/>
<path d="M1349 1601 c-31 -25 -32 -83 -1 -114 23 -22 23 -22 401 -22 l379 0
26 24 c36 33 35 82 0 110 -26 20 -37 21 -404 21 -354 0 -379 -1 -401 -19z"/>
<path d="M1341 1214 c-24 -31 -25 -35 -9 -69 19 -42 59 -47 349 -43 246 3 269
5 288 22 27 24 27 70 1 96 -19 19 -33 20 -314 20 l-295 0 -20 -26z"/>
</g>
</svg>
